<svg width="169" height="44" fill="none" xmlns="http://www.w3.org/2000/svg"><g filter="url(#filter0_d_256_216)"><path d="M28.166 25.016c0-5.28-2.88-7.776-10.08-10.416-4.127-1.584-5.04-2.4-5.04-4.08 0-1.536 1.2-2.592 3.697-2.592 2.544 0 5.664.96 8.64 2.688l1.248-6.912c-2.88-1.392-5.665-2.208-9.985-2.208-6.336 0-11.328 3.408-11.328 9.792 0 5.472 2.88 7.632 9.505 10.176 4.655 1.776 5.616 2.64 5.616 4.512 0 1.968-1.633 2.976-3.985 2.976-3.312 0-7.104-1.248-10.512-3.072l-1.2 7.008c3.36 1.536 7.105 2.496 11.569 2.496 6.576 0 11.855-3.168 11.855-10.368zM51.627 35V19.256c0-6-3.216-8.16-9.696-8.16-3.84 0-6.864.72-9.552 1.824l.864 5.472c2.496-1.104 4.944-1.776 7.584-1.776 2.4 0 3.552.912 3.552 2.976v.432c-9.216.816-13.44 3.408-13.44 8.928 0 4.272 2.64 6.528 6.384 6.528 3.216 0 5.472-1.392 7.392-3.408l.48 2.928h6.432zm-7.248-6.48c-1.296 1.152-2.64 1.776-4.032 1.776-1.344 0-2.256-.816-2.256-2.304 0-2.064 1.344-3.696 6.288-4.464v4.992zm32.392-5.328C76.77 16.376 73.554 11 66.354 11c-6.384 0-11.088 4.656-11.088 12.336 0 8.4 5.04 12.144 12.096 12.144 3.696 0 6.816-1.008 9.36-2.64l-.72-5.088C73.41 29.24 70.866 30.2 68.274 30.2c-3.168 0-5.376-1.44-5.76-5.136h14.112c.096-.384.144-1.152.144-1.872zm-6.912-2.112h-7.392c.24-3.6 1.68-5.376 3.696-5.376 2.208 0 3.456 1.824 3.696 5.376zM88.092 35V.344l-7.296 1.152V35h7.296zm24.659 0V19.256c0-6-3.216-8.16-9.696-8.16-3.84 0-6.864.72-9.552 1.824l.864 5.472c2.496-1.104 4.944-1.776 7.584-1.776 2.4 0 3.552.912 3.552 2.976v.432c-9.216.816-13.44 3.408-13.44 8.928 0 4.272 2.64 6.528 6.384 6.528 3.216 0 5.472-1.392 7.392-3.408l.48 2.928h6.432zm-7.248-6.48c-1.296 1.152-2.64 1.776-4.032 1.776-1.344 0-2.256-.816-2.256-2.304 0-2.064 1.344-3.696 6.288-4.464v4.992zM138.471 35V18.296c0-4.56-2.304-7.296-6.672-7.296-2.976 0-5.232 1.632-7.344 3.696l-.528-3.216h-6.384V35h7.248V19.544c1.296-1.296 2.592-2.112 3.984-2.112 1.728 0 2.4 1.152 2.4 2.832V35h7.296zm25.973 0V.344l-7.248 1.152v10.608c-1.344-.48-2.832-.768-4.992-.768-5.184 0-9.936 3.6-9.936 12.576 0 7.92 3.696 11.568 8.496 11.568 3.024 0 5.184-1.776 6.768-3.552l.48 3.072h6.432zm-7.248-8.352c-1.248 1.392-2.496 2.4-4.032 2.4-2.064 0-3.6-1.632-3.6-5.664 0-4.512 1.824-6.384 4.224-6.384 1.536 0 2.352.192 3.408.672v8.976z" fill="#fff"/></g><defs><filter id="filter0_d_256_216" x=".742" y=".344" width="167.702" height="43.136" filterUnits="userSpaceOnUse" color-interpolation-filters="sRGB"><feFlood flood-opacity="0" result="BackgroundImageFix"/><feColorMatrix in="SourceAlpha" values="0 0 0 0 0 0 0 0 0 0 0 0 0 0 0 0 0 0 127 0" result="hardAlpha"/><feOffset dy="4"/><feGaussianBlur stdDeviation="2"/><feComposite in2="hardAlpha" operator="out"/><feColorMatrix values="0 0 0 0 0 0 0 0 0 0 0 0 0 0 0 0 0 0 0.25 0"/><feBlend in2="BackgroundImageFix" result="effect1_dropShadow_256_216"/><feBlend in="SourceGraphic" in2="effect1_dropShadow_256_216" result="shape"/></filter></defs></svg>