<svg xmlns="http://www.w3.org/2000/svg" width="50" height="50"><path d="M17.438 7.32a3.012 3.012 0 00-.497.055c-2.11.414-4.28 1.138-6.478 2.02a5.99 5.99 0 00-2.768 2.255c-5.064 7.65-6.49 15.575-5.654 23.516a1 1 0 00.461.742c3.166 1.997 6.432 3.74 9.89 4.936 1.306.451 2.762-.072 3.518-1.23l1.65-2.53c.712.198 1.441.365 2.18.516a21.86 21.86 0 005.237.644c1.85 0 3.65-.24 5.378-.678a32.49 32.49 0 002.004-.484l1.727 2.572c.762 1.137 2.202 1.643 3.492 1.198 3.467-1.197 6.742-2.943 9.914-4.944a1 1 0 00.461-.742c.837-7.94-.589-15.865-5.652-23.514a1 1 0 00-.002-.004l-.004-.005v.003a5.983 5.983 0 00-2.77-2.253c-2.197-.88-4.363-1.604-6.472-2.018-1.325-.26-2.664.42-3.282 1.625l-.183.36a31 31 0 00-4.592-.215 30.935 30.935 0 00-4.59.214L20.223 9a1 1 0 00-.002 0c-.54-1.053-1.632-1.707-2.784-1.68zm.216 2.006c.321.043.612.246.787.588l.477.928a1 1 0 001.027.533c1.29-.178 2.833-.287 5.028-.232a1 1 0 00.048 0c2.195-.055 3.74.055 5.03.232a1 1 0 001.025-.533l.477-.928c.232-.454.674-.663 1.115-.576 1.93.378 3.987 1.058 6.113 1.91.76.303 1.397.821 1.848 1.502a1 1 0 00.002.002l.004.006c4.705 7.11 6.036 14.314 5.345 21.713-2.949 1.83-5.944 3.416-9.054 4.49-.438.15-.894.003-1.178-.42l-1.566-2.332a22.523 22.523 0 001.728-.879 1 1 0 10-.99-1.736 20.16 20.16 0 01-5.586 2.16c-1.397.25-2.846.41-4.367.441a28.262 28.262 0 01-4.223-.412 20.148 20.148 0 01-5.709-2.19 1 1 0 00-.476-.138 1 1 0 00-.516 1.875 22.4 22.4 0 001.707.867l-1.516 2.323c-.281.43-.747.585-1.187.433-3.103-1.073-6.091-2.654-9.033-4.48-.691-7.402.641-14.607 5.35-21.72a3.97 3.97 0 011.843-1.503c2.127-.853 4.188-1.534 6.12-1.912a1.01 1.01 0 01.327-.012zm13.948 10.586c-1.908 0-3.479 2.043-3.479 4.524 0 2.48 1.57 4.521 3.479 4.521 1.908 0 3.476-2.04 3.476-4.521s-1.568-4.524-3.476-4.524zm-12.995.08c-1.926 0-3.51 2.03-3.51 4.496 0 2.466 1.584 4.494 3.51 4.494 1.926 0 3.512-2.028 3.512-4.494 0-2.466-1.586-4.496-3.512-4.496z"/></svg>